<svg xmlns="http://www.w3.org/2000/svg" width="26.25" height="25.547" viewBox="0 0 26.25 25.547">
  <path id="Path_13" data-name="Path 13" d="M15.117-.176a1.261,1.261,0,0,0,.381-1,1.465,1.465,0,0,0-.439-1L8.027-8.906H24.844a1.356,1.356,0,0,0,1-.41,1.356,1.356,0,0,0,.41-1v-1.875a1.356,1.356,0,0,0-.41-1,1.356,1.356,0,0,0-1-.41H8.027l7.031-6.738a1.465,1.465,0,0,0,.439-1,1.261,1.261,0,0,0-.381-1l-1.348-1.289a1.356,1.356,0,0,0-1-.41,1.356,1.356,0,0,0-1,.41L.41-12.246a1.356,1.356,0,0,0-.41,1,1.356,1.356,0,0,0,.41,1L11.777,1.113a1.415,1.415,0,0,0,1.992,0Z" transform="translate(0 24.023)" fill="#a3a3a3"/>
</svg>
