<svg xmlns="http://www.w3.org/2000/svg" width="20.625" height="20.625" viewBox="0 0 20.625 20.625">
  <path id="Path_12" data-name="Path 12" d="M14.238-11.25,20.1-5.391A1.753,1.753,0,0,1,20.625-4.1,1.955,1.955,0,0,1,20.1-2.754L18.809-1.465a1.955,1.955,0,0,1-1.348.527,1.753,1.753,0,0,1-1.289-.527L10.312-7.324,4.453-1.465a1.753,1.753,0,0,1-1.289.527,1.955,1.955,0,0,1-1.348-.527L.527-2.754A1.955,1.955,0,0,1,0-4.1,1.753,1.753,0,0,1,.527-5.391L6.387-11.25.527-17.109A1.753,1.753,0,0,1,0-18.4a1.955,1.955,0,0,1,.527-1.348l1.289-1.289a1.955,1.955,0,0,1,1.348-.527,1.753,1.753,0,0,1,1.289.527l5.859,5.859,5.859-5.859a1.753,1.753,0,0,1,1.289-.527,1.955,1.955,0,0,1,1.348.527L20.1-19.746a1.955,1.955,0,0,1,.527,1.348,1.753,1.753,0,0,1-.527,1.289Z" transform="translate(0 21.562)" fill="#efefef"/>
</svg>
