<svg xmlns="http://www.w3.org/2000/svg" width="35.238" height="50" viewBox="0 0 35.238 50"><g transform="translate(-1288 -410)"><g transform="translate(1288 410)"><path d="M16.681,0V6.73h5.373V4.538h-3.18V2.193h3.18V0Z" transform="translate(-9.477 0)" fill="#f2f2f2"/><path d="M17.619,22.737H0L3.258,58.785l14.362,4.133,14.361-4.133,3.258-36.048Z" transform="translate(0 -12.917)" fill="#027ec6"/><path d="M40.8,29.577V63.73l11.6-3.339,2.785-30.814Z" transform="translate(-23.178 -16.803)" fill="#008fd5"/><path d="M26.3,49.063l10.486-4.322.407-4.188H14.315l.419,4.316H25.444L15.169,49.334l.408,4.2H31.47L30.853,59.2l-5.1,1.083-5.1-1.083L20.3,55.976H15.814l.666,6.859,9.271,2.511,9.271-2.511,1.338-13.771Z" transform="translate(-8.133 -23.04)" fill="#fff"/><path d="M34.455,0V1.825l1.933,2.713H34.594V6.73h5.331V4.538L38.033,2.193h1.892V0Z" transform="translate(-19.575 0)" fill="#f2f2f2"/><path d="M52.182,0V1.825l1.933,2.713H52.321V6.73h5.331V4.538L55.761,2.193h1.892V0Z" transform="translate(-29.646 0)" fill="#f2f2f2"/></g></g></svg>