<svg xmlns="http://www.w3.org/2000/svg" width="36" height="27" viewBox="0 0 36 27">
  <path id="Path_9" data-name="Path 9" d="M35.3-18.07a.347.347,0,0,1,.457-.07.456.456,0,0,1,.246.422V-3.375a3.255,3.255,0,0,1-.984,2.391A3.255,3.255,0,0,1,32.625,0H3.375A3.255,3.255,0,0,1,.984-.984,3.255,3.255,0,0,1,0-3.375V-17.719a.386.386,0,0,1,.246-.387A.454.454,0,0,1,.7-18.07q2.32,1.758,10.828,7.945l.7.633a27.969,27.969,0,0,0,2.672,1.828A6.587,6.587,0,0,0,18-6.75a6.241,6.241,0,0,0,3.094-.984,19.632,19.632,0,0,0,2.672-1.828l.7-.562Q32.766-16.1,35.3-18.07ZM18-9a4.488,4.488,0,0,1-2.25-.844,16.755,16.755,0,0,1-2.18-1.547l-.7-.492Q4.219-18.211,1.125-20.6l-.492-.352A1.6,1.6,0,0,1,0-22.289v-1.336a3.255,3.255,0,0,1,.984-2.391A3.255,3.255,0,0,1,3.375-27h29.25a3.255,3.255,0,0,1,2.391.984A3.255,3.255,0,0,1,36-23.625v1.336a1.6,1.6,0,0,1-.633,1.336l-.352.281q-3.023,2.391-11.883,8.789l-.7.492a16.755,16.755,0,0,1-2.18,1.547A4.488,4.488,0,0,1,18-9Z" transform="translate(0 27)" fill="#fff"/>
</svg>
