<svg xmlns="http://www.w3.org/2000/svg" width="35" height="35" viewBox="0 0 35 35">
  <path id="Path_10" data-name="Path 10" d="M35-30.547a1.837,1.837,0,0,0-.586-1.406,1.941,1.941,0,0,0-1.367-.547H1.953a1.9,1.9,0,0,0-1.406.547A1.9,1.9,0,0,0,0-30.547V.547A1.941,1.941,0,0,0,.547,1.914,1.837,1.837,0,0,0,1.953,2.5H18.672V-11.094H14.141v-5.234h4.531v-3.906a6.808,6.808,0,0,1,1.875-5.156,6.817,6.817,0,0,1,4.922-1.8q2.422,0,4.062.156v4.766H26.719a2.708,2.708,0,0,0-2.109.7,2.9,2.9,0,0,0-.469,1.875v3.359h5.234l-.7,5.234H24.141V2.5h8.906a1.837,1.837,0,0,0,1.406-.586A1.941,1.941,0,0,0,35,.547Z" transform="translate(0 32.5)" fill="#fff"/>
</svg>
