<svg xmlns="http://www.w3.org/2000/svg" width="29.062" height="28.34" viewBox="0 0 29.062 28.34">
  <path id="Path_4" data-name="Path 4" d="M9.727-2.988q0,.234-.322.264T9.082-2.93q0-.234.293-.234a.479.479,0,0,1,.264.059Q9.727-3.047,9.727-2.988ZM7.91-3.223q.059-.234.352-.146t.264.234a.274.274,0,0,1-.146.205.249.249,0,0,1-.234,0,.782.782,0,0,1-.205-.146Q7.852-3.164,7.91-3.223Zm2.578-.117q.293,0,.322.176t-.264.293a.649.649,0,0,1-.205-.029q-.088-.029-.117-.205T10.488-3.34Zm3.867-22.441a15.034,15.034,0,0,1,7.383,1.875,13.945,13.945,0,0,1,5.332,5.1,14.034,14.034,0,0,1,1.992,7.324,14.663,14.663,0,0,1-2.725,8.7,13.946,13.946,0,0,1-7.119,5.3.766.766,0,0,1-.732-.117.751.751,0,0,1-.264-.586V-3.105a3.3,3.3,0,0,0-1-2.7,16.642,16.642,0,0,0,3.223-.586,5.253,5.253,0,0,0,2.52-1.758,7.534,7.534,0,0,0,1-4.16,4.275,4.275,0,0,0-.41-1.934A6.852,6.852,0,0,0,22.441-15.7a4.7,4.7,0,0,0,.293-1.406,6.606,6.606,0,0,0-.41-2.578,2.668,2.668,0,0,0-1.641.234,15.945,15.945,0,0,0-1.641.82l-.762.527a13.278,13.278,0,0,0-3.721-.527,12.676,12.676,0,0,0-3.662.527l-.762-.527a13.175,13.175,0,0,0-1.7-.82,2.521,2.521,0,0,0-1.582-.234,5.431,5.431,0,0,0-.41,2.578,3.336,3.336,0,0,0,.234,1.348A7.491,7.491,0,0,0,5.654-14.15,4.6,4.6,0,0,0,5.332-12.3,7.59,7.59,0,0,0,6.27-8.2,4.768,4.768,0,0,0,8.73-6.387a16.47,16.47,0,0,0,3.164.586,3.194,3.194,0,0,0-.937,1.992,3.477,3.477,0,0,1-1.934.352A2.834,2.834,0,0,1,6.68-5.039a3.05,3.05,0,0,0-.937-1.055,6.048,6.048,0,0,0-.879-.41l-.41-.059q-.645,0-.674.205t.264.439l.293.234a2.923,2.923,0,0,1,.82.762,3.8,3.8,0,0,1,.586.937l.234.469A2.371,2.371,0,0,0,7.09-2.168a4.35,4.35,0,0,0,1.7.527A6.219,6.219,0,0,0,10.254-1.7l.645-.059.059,3.574a.751.751,0,0,1-.264.586.766.766,0,0,1-.732.117,14.081,14.081,0,0,1-7.207-5.3A14.556,14.556,0,0,1,0-11.484,14.384,14.384,0,0,1,1.875-18.75a13.617,13.617,0,0,1,5.156-5.156A14.5,14.5,0,0,1,14.355-25.781ZM5.684-5.566q.117-.117.293.059t.059.293q-.117.117-.293-.059T5.684-5.566Zm-.645-.469a.232.232,0,0,1,.293-.029q.176.088.117.234T5.186-5.8Q4.98-5.918,5.039-6.035ZM6.973-3.984a.175.175,0,0,1,.176-.029.435.435,0,0,1,.205.117.435.435,0,0,1,.117.205.175.175,0,0,1-.029.176q-.176.176-.41-.059a.338.338,0,0,1-.117-.234A.239.239,0,0,1,6.973-3.984Zm-.7-.82a.267.267,0,0,1,.205-.029.267.267,0,0,1,.146.146q.176.234,0,.352-.059.059-.146,0a1.915,1.915,0,0,0-.205-.117Q6.152-4.746,6.27-4.8Z" transform="translate(0 25.781)" fill="#fff"/>
</svg>
