<svg xmlns="http://www.w3.org/2000/svg" width="35.201" height="50" viewBox="0 0 35.201 50"><g transform="translate(0 0)"><path d="M17.6,22.861H0L3.254,58.869,17.6,63l14.346-4.129L35.2,22.861Z" transform="translate(0 -12.998)" fill="#f15930"/><path d="M40.8,29.7V63.816l11.589-3.335L55.168,29.7Z" transform="translate(-23.197 -16.887)" fill="#f47933"/><path d="M12.107,0V2.222H10.014V0H7.823V6.736h2.19V4.413h2.094V6.736H14.3V0Z" transform="translate(-4.448)" fill="#f2f2f2"/><path d="M25.256,0V2.19h1.988V6.736h2.19V2.19h1.988V0Z" transform="translate(-14.36)" fill="#f2f2f2"/><path d="M62.093,0V6.736h5.326V4.546H64.284V0Z" transform="translate(-35.305)" fill="#f2f2f2"/><path d="M47.111,0,45.72,2.34,44.328,0H41.946V6.736h2.191V3.33l1.582,2.4v0L47.3,3.33V6.736h2.19V0Z" transform="translate(-23.85)" fill="#f2f2f2"/><path d="M37.4,39.891H15.344L16.53,53.223H31.811l-.475,5.77-4.966,1.37-4.887-1.344-.316-3.451H16.74l.606,6.85,9.024,2.5,9.05-2.529,1.239-13.568H20.613l-.474-4.479H37.08Z" transform="translate(-8.724 -22.682)" fill="#fff"/></g></svg>