<svg xmlns="http://www.w3.org/2000/svg" width="35.239" height="50" viewBox="0 0 35.239 50"><g transform="translate(0 -0.001)"><path d="M29.249,0V4.538h-1v-.8H26.059v3h5.383V0Z" transform="translate(-14.805)" fill="#f2f2f2"/><path d="M17.619,22.737H0L3.258,58.784l14.362,4.133,14.362-4.133,3.258-36.048Z" transform="translate(0 -12.917)" fill="#f58232"/><path d="M40.8,29.577V63.73l11.6-3.339,2.785-30.814Z" transform="translate(-23.178 -16.803)" fill="#f99d34"/><path d="M44.91,0H43.1V1.825l1.934,2.713H43.24V6.731h5.331V4.538L46.679,2.193h1.891V0Z" transform="translate(-24.486)" fill="#f2f2f2"/><path d="M46.621,49.232l.187-4.548H53l.4-4.131H42.852v12.98h5.2l-.4,5.544-4.8,1.018V65.1l8.384-2.271,1.322-13.6Z" transform="translate(-24.346 -23.039)" fill="#fff"/><path d="M23.028,40.553l.6,18.864L22.616,59.2l0-.029-1.578-.346-.156-2.336-3.105-.572.672,6.916L26.829,65.1V40.553Z" transform="translate(-10.098 -23.039)" fill="#fff"/></g></svg>