<svg xmlns="http://www.w3.org/2000/svg" width="35" height="35" viewBox="0 0 35 35">
  <path id="Path_11" data-name="Path 11" d="M32.5-32.5a2.4,2.4,0,0,1,1.758.742A2.4,2.4,0,0,1,35-30V0a2.4,2.4,0,0,1-.742,1.758A2.4,2.4,0,0,1,32.5,2.5H2.5A2.4,2.4,0,0,1,.742,1.758,2.4,2.4,0,0,1,0,0V-30a2.4,2.4,0,0,1,.742-1.758A2.4,2.4,0,0,1,2.5-32.5ZM10.547-2.5h.078V-19.219H5.391V-2.5ZM7.969-21.484a2.932,2.932,0,0,0,2.148-.9,2.888,2.888,0,0,0,.9-2.109,2.888,2.888,0,0,0-.9-2.109,2.932,2.932,0,0,0-2.148-.9,2.805,2.805,0,0,0-2.109.9A2.953,2.953,0,0,0,5-24.492a2.953,2.953,0,0,0,.859,2.109A2.805,2.805,0,0,0,7.969-21.484ZM30-2.5v-9.141a11.356,11.356,0,0,0-1.094-5.7q-1.484-2.266-5.078-2.266a6.019,6.019,0,0,0-3.2.859,4.37,4.37,0,0,0-1.719,1.8h-.078v-2.266h-5V-2.5h5.156v-8.281a6.411,6.411,0,0,1,.547-2.969,2.755,2.755,0,0,1,2.578-1.328,2.238,2.238,0,0,1,2.344,1.484,8.277,8.277,0,0,1,.391,2.969V-2.5Z" transform="translate(0 32.5)" fill="#fff"/>
</svg>
