<svg xmlns="http://www.w3.org/2000/svg" width="157.522" height="50" viewBox="0 0 157.522 50">
  <path id="DTD-Logo" d="M20.5.259A24.321,24.321,0,0,0,16.774.084H0c1.493,0,13.81,1.095,19.106,3.269a8.375,8.375,0,0,1-4.778,4.3L.573,50S29.122,33.382,34.879,15.672C39.015,2.945,27.373.583,20.5.259Zm10.35,13.787C26.8,26.5,11.879,37.373,11.879,37.373L22.7,4.082S33.181,6.868,30.845,14.046ZM56.884.084l-11.3,34.775L40.311.084s1.354,4.062,4.2,5.028l2.106,16.424L51.953,5.112C55.238,4.312,56.884.084,56.884.084ZM39.517,10.139l3.152,23a12.087,12.087,0,0,0-3.5,1.71h0l-.735-6c-.632-.065-1.646-.068-3.142-.052L33.725,32.65a11.211,11.211,0,0,0-4.658,2.209h-.013L31.6,28.947c-1.15.078-2.452.1-3.923.262,2.954-1.386,8.2-2.213,10.5-2.523l-.473-3.839-1.367,3.311c-.952.13-2.352.34-3.871.635ZM66.8,23.758a35.071,35.071,0,0,0,3.949-8.3C72.789,8.1,60.9,7.719,56.116,7.626a29.086,29.086,0,0,1,7.6,2.177,7.949,7.949,0,0,1-2.621,2.076L53.625,34.853S62.553,30.726,66.8,23.758ZM64.843,10.489c2.1,1.5,3.058,3.777,1.843,7.515-1.325,4.078-5.07,8.7-8.209,12.073ZM157.522.091s-4.626,1.539-5.88,5.028H82.449l-12.938,39.8-7.519,5.024L75.662,7.626a5.748,5.748,0,0,0,4.3-2.514h-9.09L59.647,0Zm-99.1,12.961L51.979,32.935a11.241,11.241,0,0,0-3.959,2.047L54.739,14.2A26.1,26.1,0,0,0,58.426,13.052Zm30.369-2.912c-5.462,0-6.333,4.237-8.928,11.49,0,0-5.283,13.353.713,13.353s7.068-4.687,9.446-11.338S94.257,10.139,88.795,10.139Zm-1.678,12.42c-2.413,6.806-3.719,9.333-5.455,9.333-1.438,0-1.312-2.345,1.386-9.942,0,0,2.8-9.5,5.339-9.5C90.249,12.449,89.53,15.753,87.117,22.559Zm10.875-2.277c.6-.2,1.3-.437,2.1-.716,7.127-2.452,7.6-6.388,4.72-9.43S91.487,7.626,91.487,7.626A44.019,44.019,0,0,1,99.21,9.349a11.827,11.827,0,0,1-3.175,2.187l-7.619,23.44a11.237,11.237,0,0,1,3.962-2.047l3.933-12.1c.071-.023.146-.045.224-.071l1.095,12.4a10.932,10.932,0,0,1,4.684,4.208h.045l-1.9-15.876A21.244,21.244,0,0,1,97.992,20.282Zm-1.38-.379L99.948,9.637c3.136,1.3,3.486,2.87,2.491,4.862C101.48,16.42,98.656,18.546,96.612,19.9Zm14.512-.535c.557-.188,1.205-.408,1.95-.664,6.615-2.277,7.049-5.928,4.38-8.75s-12.368-2.329-12.368-2.329a40.951,40.951,0,0,1,7.166,1.6,11.031,11.031,0,0,1-2.945,2.031l-5.756,17.69s.224,1.344,1.017,6.284l5-15.348c.068-.023.136-.042.207-.065l1.017,11.51a10.108,10.108,0,0,1,4.347,3.907h.042L113.414,20.5A21.012,21.012,0,0,1,111.124,19.368Zm-1.28-.353,3.1-9.527c2.909,1.208,3.236,2.663,2.313,4.512C114.363,15.786,111.74,17.758,109.844,19.015ZM142.352,7.593h7.185s-3.754,1.221-4.428,3.3h-3.7c-2.673,0-3.171,1.85-3.861,3.751s.522,2.481,3.382,3.269c4.37,1.2,3.489,5.151,2.225,9.109-.784,2.449-2.7,7.956-10.823,7.956H119.08l-2.115-3.738h13.988c6.323,0,7.282-.748,8.97-4.853,1.315-3.2.884-4.6-1.7-5.332-2.3-.654-5.711-.813-3.725-7.029C135.824,9.861,137.739,7.593,142.352,7.593ZM121.383,25.63h13.4a7.111,7.111,0,0,0-3.375,3.644H116.965l3.907-12.663,3.5.019v0h4.428l-1.124,3.644h-4.632Zm15.656-18v0a6.972,6.972,0,0,0-3.518,3.641h-7.707l-1.383,4.467-3.256-.13,1.642-5.326.016-.036s.69-2.621-2.358-2.621h16.563ZM15.481,42.4l6.054-5.031H62.828l-1.7,5.031Zm125.724-5.028L135.151,42.4H122.442l1.636-5.031h17.127ZM79.948,37.37H75.475L73.852,42.4h5.18a3.916,3.916,0,0,0,3.142-2.514C82.549,38.73,82.245,37.37,79.948,37.37Zm.431,2.293a3.232,3.232,0,0,1-.994,1.351,2.429,2.429,0,0,1-1.451.651H75.857L77,38.111h1.846a1.84,1.84,0,0,1,1.487.466A1.321,1.321,0,0,1,80.379,39.663Zm5.17-1.552L85.1,39.524h3.23l-.236.735H84.862l-.454,1.412h5.51l-.236.735H82.407l1.623-5.034,7.276,0-.236.735h-5.52Zm8.011.845c-.094.353.006.466.518.466h4.075c.784.032,1.1.292.878.985h0l-.317.985A1.422,1.422,0,0,1,97.276,42.4c-.039,0-.075,0-.107,0H90.684l.236-.735H96.4c.379-.023.505-.22.687-.713l.126-.392c.058-.266-.016-.379-.34-.4H92.8c-.92,0-1.305-.243-1.063-.988l.223-.7a1.435,1.435,0,0,1,1.467-1.1h6.589l-.236.735H94.438c-.46,0-.58.006-.794.606Zm8.218,3.447H100.01l1.623-5.034H103.4Zm19.067-5.034-1.62,5.034h-1.769l-2.128-4.185L113.981,42.4h-1.769l1.623-5.034H115.6l2.144,4.143,1.335-4.143Zm-15.4,3.9c-.058.262.016.376.34.4h3.278l.492-1.51h-2.316l.236-.735h4.088l-.975,2.983H104.7c-.92,0-1.305-.243-1.063-.988l.075-.233h0l.894-2.773a1.425,1.425,0,0,1,1.445-1.033c.042,0,.081,0,.12-.006l6.045,0-.236.735h-5.053c-.334.006-.457.065-.632.531Z" fill="#fff"/>
</svg>
