<svg xmlns="http://www.w3.org/2000/svg" width="26.25" height="22.969" viewBox="0 0 26.25 22.969">
  <path id="Path_6" data-name="Path 6" d="M.937-18.516a.912.912,0,0,1-.674-.264A.912.912,0,0,1,0-19.453V-21.8a.913.913,0,0,1,.264-.674.912.912,0,0,1,.674-.264H25.312a.912.912,0,0,1,.674.264.913.913,0,0,1,.264.674v2.344a.912.912,0,0,1-.264.674.912.912,0,0,1-.674.264Zm0,9.375A.912.912,0,0,1,.264-9.4.912.912,0,0,1,0-10.078v-2.344A.912.912,0,0,1,.264-13.1a.912.912,0,0,1,.674-.264H25.312a.912.912,0,0,1,.674.264.912.912,0,0,1,.264.674v2.344a.912.912,0,0,1-.264.674.912.912,0,0,1-.674.264Zm0,9.375A.912.912,0,0,1,.264-.029.912.912,0,0,1,0-.7V-3.047a.912.912,0,0,1,.264-.674.912.912,0,0,1,.674-.264H25.312a.912.912,0,0,1,.674.264.912.912,0,0,1,.264.674V-.7a.912.912,0,0,1-.264.674.912.912,0,0,1-.674.264Z" transform="translate(0 22.734)" fill="#efefef"/>
</svg>
