<svg xmlns="http://www.w3.org/2000/svg" width="30" height="40" viewBox="0 0 30 40">
  <path id="Path_7" data-name="Path 7" d="M14.219-15a6.774,6.774,0,0,1-.312-2.266q0-1.406.156-1.406.469,0,.469,1.523A5.23,5.23,0,0,1,14.219-15Zm-.156,3.672a9.217,9.217,0,0,0,2.734,3.2,28.51,28.51,0,0,0-3.828,1.25l-1.094.469A43.1,43.1,0,0,0,14.062-11.328ZM6.719-1.562A9.655,9.655,0,0,1,9.141-4.453l.312-.234Q8.672-3.516,7.969-2.656a4.1,4.1,0,0,1-.859.9Q6.719-1.484,6.719-1.562ZM30-22.5V3.125a1.808,1.808,0,0,1-.547,1.328A1.808,1.808,0,0,1,28.125,5H1.875A1.808,1.808,0,0,1,.547,4.453,1.808,1.808,0,0,1,0,3.125v-36.25a1.808,1.808,0,0,1,.547-1.328A1.808,1.808,0,0,1,1.875-35H17.5v10.625a1.808,1.808,0,0,0,.547,1.328,1.808,1.808,0,0,0,1.328.547ZM18.75-9.062a8.327,8.327,0,0,1-3.359-4.219l.078-.078a19.324,19.324,0,0,0,.469-2.5,6.186,6.186,0,0,0,0-2.422,1.977,1.977,0,0,0-1.055-1.484,2.214,2.214,0,0,0-1.68-.117,1.354,1.354,0,0,0-1.016,1.055,5.916,5.916,0,0,0-.078,2.578,26.855,26.855,0,0,0,.7,3.437,70.664,70.664,0,0,1-3.2,6.719A12.858,12.858,0,0,0,6.094-3.75Q4.375-2.031,5.312-.781a1.9,1.9,0,0,0,.82.586,2.549,2.549,0,0,0,.9.2A3.183,3.183,0,0,0,9.18-1.133,18.527,18.527,0,0,0,11.8-4.844l1.172-.391a32.874,32.874,0,0,1,5-1.406,12.1,12.1,0,0,0,2.617,1.094,8.849,8.849,0,0,0,2.383.391,1.965,1.965,0,0,0,1.562-.625,1.977,1.977,0,0,0,.508-1.445,1.875,1.875,0,0,0-.508-1.289Q23.281-9.687,18.75-9.062ZM29.453-26.8A1.808,1.808,0,0,1,30-25.469V-25H20V-35h.469a1.808,1.808,0,0,1,1.328.547ZM23.672-6.875l-.234.078a2.755,2.755,0,0,1-.937,0,19.488,19.488,0,0,1-2.187-.781,10.93,10.93,0,0,1,2.344.078,1.621,1.621,0,0,1,.937.312Q23.828-6.953,23.672-6.875Z" transform="translate(0 35)" fill="#fff"/>
</svg>
