<svg xmlns="http://www.w3.org/2000/svg" width="35.977" height="35.976" viewBox="0 0 35.977 35.976">
  <path id="Path_8" data-name="Path 8" d="M34.664-29.742a1.334,1.334,0,0,1,.984.562A1.781,1.781,0,0,1,36-28.125a32.089,32.089,0,0,1-4.43,16.453A32.781,32.781,0,0,1,19.828.07,32.089,32.089,0,0,1,3.375,4.5,1.781,1.781,0,0,1,2.32,4.148a1.334,1.334,0,0,1-.562-.984L.07-4.148A1.587,1.587,0,0,1,.211-5.273a1.514,1.514,0,0,1,.844-.773L8.93-9.422a1.785,1.785,0,0,1,1.055-.105,1.413,1.413,0,0,1,.914.6l3.445,4.219a24.715,24.715,0,0,0,7.348-5.133,25.832,25.832,0,0,0,5.1-7.312L22.57-20.672a1.683,1.683,0,0,1-.562-.879,1.753,1.753,0,0,1,.07-1.09l3.375-7.875a1.551,1.551,0,0,1,.773-.773,1.587,1.587,0,0,1,1.125-.141Z" transform="translate(-0.023 31.476)" fill="#fff"/>
</svg>
