<svg id="Image_Placeholder" data-name="Image Placeholder" xmlns="http://www.w3.org/2000/svg" width="314" height="226" viewBox="0 0 314 226">
  <rect id="Rectangle_5" data-name="Rectangle 5" width="314" height="226" fill="#6d6d6d"/>
  <path id="Path_1" data-name="Path 1" d="M-935,1201.194l33.781-33.781,16.441,16.441,7.2-7.2,24.541,24.541Z" transform="translate(1040.785 -1066.45)" fill="#a3a3a3"/>
  <path id="Path_2" data-name="Path 2" d="M11.191-22.324a1.191,1.191,0,0,0-.439,1,1.465,1.465,0,0,0,.439,1l7.031,6.738H1.406a1.356,1.356,0,0,0-1,.41,1.356,1.356,0,0,0-.41,1v1.875a1.356,1.356,0,0,0,.41,1,1.356,1.356,0,0,0,1,.41H18.223L11.191-2.168a1.465,1.465,0,0,0-.439,1,1.191,1.191,0,0,0,.439,1L12.48,1.113a1.415,1.415,0,0,0,1.992,0L25.84-10.254a1.356,1.356,0,0,0,.41-1,1.356,1.356,0,0,0-.41-1L14.473-23.613a1.356,1.356,0,0,0-1-.41,1.356,1.356,0,0,0-1,.41Z" transform="translate(268.391 201.893)" fill="#a3a3a3"/>
</svg>
