<svg xmlns="http://www.w3.org/2000/svg" width="314" height="176.5" viewBox="0 0 314 176.5">
  <g id="Group_36" data-name="Group 36" transform="translate(-50 -74.5)">
    <rect id="Rectangle_68" data-name="Rectangle 68" width="314" height="176" transform="translate(50 74.5)" fill="#6d6d6d"/>
    <rect id="Rectangle_69" data-name="Rectangle 69" width="40" height="40" transform="translate(324 211)"/>
    <path id="Path_10" data-name="Path 10" d="M14.844-12.5a.565.565,0,0,0-.171-.415.565.565,0,0,0-.415-.171H11.523V-15.82a.565.565,0,0,0-.171-.415.565.565,0,0,0-.415-.171H9.375a.565.565,0,0,0-.415.171.565.565,0,0,0-.171.415v2.734H6.055a.565.565,0,0,0-.415.171.565.565,0,0,0-.171.415v1.562a.565.565,0,0,0,.171.415.565.565,0,0,0,.415.171H8.789v2.734A.565.565,0,0,0,8.96-7.2a.565.565,0,0,0,.415.171h1.562a.565.565,0,0,0,.415-.171.565.565,0,0,0,.171-.415v-2.734h2.734a.565.565,0,0,0,.415-.171.565.565,0,0,0,.171-.415ZM24.658,1.416A1.13,1.13,0,0,0,25,.586a1.13,1.13,0,0,0-.342-.83L19.775-5.127a1.13,1.13,0,0,0-.83-.342h-.781a9.84,9.84,0,0,0,2.148-6.25,9.864,9.864,0,0,0-1.367-5.1,10.261,10.261,0,0,0-3.687-3.687,9.864,9.864,0,0,0-5.1-1.367,9.864,9.864,0,0,0-5.1,1.367,10.261,10.261,0,0,0-3.687,3.687A9.864,9.864,0,0,0,0-11.719a9.864,9.864,0,0,0,1.367,5.1A10.261,10.261,0,0,0,5.054-2.93a9.864,9.864,0,0,0,5.1,1.367,9.84,9.84,0,0,0,6.25-2.148v.781a1.13,1.13,0,0,0,.342.83l4.883,4.883a1.179,1.179,0,0,0,1.66,0ZM16.8-11.719a6.36,6.36,0,0,1-.9,3.32,6.876,6.876,0,0,1-2.417,2.417,6.36,6.36,0,0,1-3.32.9,6.36,6.36,0,0,1-3.32-.9A6.876,6.876,0,0,1,4.419-8.4a6.36,6.36,0,0,1-.9-3.32,6.36,6.36,0,0,1,.9-3.32,6.876,6.876,0,0,1,2.417-2.417,6.36,6.36,0,0,1,3.32-.9,6.36,6.36,0,0,1,3.32.9,6.876,6.876,0,0,1,2.417,2.417A6.36,6.36,0,0,1,16.8-11.719Z" transform="translate(331 240)" fill="#fff"/>
    <path id="Path_11" data-name="Path 11" d="M9.164-8.637H15.48V-.82A14.176,14.176,0,0,1,9.891.234,8.138,8.138,0,0,1,3.674-2.057,9.086,9.086,0,0,1,1.512-8.543a9.741,9.741,0,0,1,1.072-4.635A7.511,7.511,0,0,1,5.654-16.3a9.346,9.346,0,0,1,4.588-1.1,11.826,11.826,0,0,1,5.027,1.031l-.48,1.078a10.867,10.867,0,0,0-4.617-1.031A7.058,7.058,0,0,0,4.8-14.232,7.857,7.857,0,0,0,2.813-8.59q0,3.867,1.887,5.818A7.365,7.365,0,0,0,10.242-.82a10.737,10.737,0,0,0,4.02-.668V-7.512h-5.1ZM19.781,0V-17.133h1.2V0Zm7.242,0h-1.2V-17.133h9.387v1.1H27.023v7.266h7.734v1.113H27.023Z" transform="translate(70 224)"/>
  </g>
</svg>
