<svg xmlns="http://www.w3.org/2000/svg" xmlns:xlink="http://www.w3.org/1999/xlink" width="44.126" height="50" viewBox="0 0 44.126 50"><defs><clipPath id="a"><rect width="44.126" height="50" fill="none"/></clipPath></defs><g clip-path="url(#a)"><path d="M38.647,9.628a.486.486,0,0,0-.439-.408c-.181-.015-3.741-.069-3.741-.069S31.49,6.26,31.2,5.966A1.218,1.218,0,0,0,30.1,5.827l-1.5.463a10.528,10.528,0,0,0-.715-1.759,5.042,5.042,0,0,0-4.487-3.094H23.4c-.13,0-.259.012-.389.023-.056-.067-.112-.132-.169-.195A3.93,3.93,0,0,0,19.72,0C17.3.072,14.886,1.821,12.929,4.928a19.516,19.516,0,0,0-2.72,7.059L5.441,13.465c-1.4.441-1.449.484-1.632,1.807-.136,1-3.809,29.4-3.809,29.4L30.782,50l13.342-3.317S38.681,9.88,38.647,9.628M27.067,6.768l-2.388.739A13.25,13.25,0,0,0,23.944,3.1c1.837.348,2.742,2.428,3.123,3.668m-4,1.238L17.929,9.6a12.177,12.177,0,0,1,2.6-5.037A5.184,5.184,0,0,1,22.269,3.29a11.55,11.55,0,0,1,.8,4.716m-3.3-6.392A2.469,2.469,0,0,1,21.225,2,7.019,7.019,0,0,0,19.344,3.46a14.1,14.1,0,0,0-3.187,6.685c-1.467.454-2.9.9-4.222,1.307.834-3.891,4.1-9.729,7.833-9.837" transform="translate(0 0)" fill="#95bf47"/><path d="M44.367,10.377c-.182-.016-3.742-.069-3.742-.069s-2.977-2.891-3.271-3.185a.721.721,0,0,0-.413-.19l0,44.221,13.341-3.315s-5.444-36.8-5.478-37.054a.486.486,0,0,0-.438-.407" transform="translate(-6.157 -1.155)" fill="#5e8e3e"/><path d="M25.029,19.192l-1.549,5.8a8.8,8.8,0,0,0-3.778-.657c-3,.19-3.037,2.085-3.007,2.561.164,2.593,6.985,3.159,7.367,9.232.3,4.777-2.534,8.045-6.619,8.3a9.922,9.922,0,0,1-7.6-2.583l1.039-4.42s2.718,2.05,4.893,1.913a1.921,1.921,0,0,0,1.877-2.062c-.213-3.382-5.768-3.182-6.118-8.74-.3-4.676,2.776-9.414,9.552-9.842a8.333,8.333,0,0,1,3.947.5" transform="translate(-1.64 -3.111)" fill="#fff"/></g></svg>