<svg xmlns="http://www.w3.org/2000/svg" width="51.282" height="50" viewBox="0 0 51.282 50"><path d="M9.081,0H42.2a9.074,9.074,0,0,1,9.081,9.081V40.919A9.074,9.074,0,0,1,42.2,50H9.081A9.074,9.074,0,0,1,0,40.919V9.081A9.074,9.074,0,0,1,9.081,0Z" fill="#470137"/><g transform="translate(7.47 10.958)"><path d="M54.456,60.321,48.046,70.9l6.838,11.218a.368.368,0,0,1,.043.256c-.021.085-.107.021-.235.043H49.8c-.342,0-.577-.021-.726-.235-.449-.9-.919-1.774-1.368-2.671-.449-.876-.94-1.774-1.453-2.692s-1.026-1.838-1.538-2.778H44.67c-.449.919-.94,1.838-1.432,2.756s-.983,1.838-1.453,2.735c-.491.9-.983,1.816-1.474,2.692-.085.214-.256.235-.491.235h-4.7c-.085,0-.15.043-.15-.064a.3.3,0,0,1,.043-.235l6.645-10.9L35.183,60.3c-.064-.085-.085-.171-.043-.214A.248.248,0,0,1,35.354,60H40.2a1.261,1.261,0,0,1,.3.043.606.606,0,0,1,.214.192c.406.919.876,1.838,1.368,2.756.513.919,1,1.816,1.538,2.714.513.9.983,1.795,1.432,2.714H45.1c.449-.94.919-1.859,1.389-2.756s.962-1.795,1.453-2.692.962-1.816,1.432-2.692a.363.363,0,0,1,.128-.214.407.407,0,0,1,.278-.043h4.509a.2.2,0,0,1,.235.15c.021.021-.021.107-.064.15Z" transform="translate(-34.961 -58.138)" fill="#ff61f6"/><path d="M139.293,76.01a10.623,10.623,0,0,1-4.594-.962,7.449,7.449,0,0,1-3.227-2.906,9.246,9.246,0,0,1-1.175-4.872,8.776,8.776,0,0,1,1.175-4.509,8.873,8.873,0,0,1,3.4-3.312,10.93,10.93,0,0,1,5.406-1.239,3.817,3.817,0,0,1,.449.021c.192.021.406.021.662.043V51.523c0-.15.064-.235.214-.235h4.338a.192.192,0,0,1,.214.15V71.822c0,.385.021.812.043,1.282.043.449.064.876.085,1.239a.347.347,0,0,1-.214.342,16.319,16.319,0,0,1-3.483,1.026A18.848,18.848,0,0,1,139.293,76.01Zm2.094-4.273v-9.4a5.467,5.467,0,0,0-.577-.107c-.235-.021-.47-.043-.705-.043a5.267,5.267,0,0,0-2.415.556,4.79,4.79,0,0,0-1.816,1.581,4.737,4.737,0,0,0-.705,2.714,5.954,5.954,0,0,0,.363,2.2,4.176,4.176,0,0,0,.962,1.517,3.692,3.692,0,0,0,1.453.855,5.593,5.593,0,0,0,1.774.278c.32,0,.62-.021.9-.043A1.869,1.869,0,0,0,141.387,71.737Z" transform="translate(-109.925 -51.284)" fill="#ff61f6"/></g></svg>